<svg width="1105" height="3574" viewBox="0 0 1105 3574" fill="none" xmlns="http://www.w3.org/2000/svg">
<path d="M493 1C493 1 451.172 182.859 493 286C575.619 489.725 912 454.5 979.5 489C1047 523.5 1096 586 1102.5 688C1109 790 1077.8 963.62 958.5 982.5C740.5 1017 754.102 1007.5 602.5 1007.5C398.5 1007.5 280.465 984.283 146.5 1108C58.7766 1189.01 -7.42059 1259.05 3.00002 1378C16.7907 1535.42 176.323 1562 318 1632C463.218 1703.75 722.325 1566.03 721.5 1728C721.054 1815.55 673.111 1866.24 602.5 1918C526.59 1973.65 393.101 1880.93 367.5 1971.5C349.019 2036.88 415.403 2066.58 437 2131C455.38 2185.83 462.444 2217.74 473.5 2274.5C502.683 2424.32 576.825 2539.46 490 2665C397.599 2798.6 171.301 2635.46 89 2775.5C59.8505 2825.1 52.0644 2859.61 48 2917C39.2459 3040.61 76.0435 3129.88 171 3209.5C268.576 3291.31 413.684 3175.07 490 3277C559.397 3369.69 490 3573.5 490 3573.5" stroke="white" stroke-width="2"/>
</svg>
